<?xml version="1.0" encoding="utf-8"?>
<!-- Generator: Adobe Illustrator 27.3.1, SVG Export Plug-In . SVG Version: 6.00 Build 0)  -->
<svg version="1.1" id="coqueiro" xmlns="http://www.w3.org/2000/svg" xmlns:xlink="http://www.w3.org/1999/xlink" x="0px" y="0px"
	 viewBox="0 0 511.21 572.71" enable-background="new 0 0 511.21 572.71" xml:space="preserve">
<g id="XMLID_43_">
	<path id="XMLID_1327_" fill="#6DBE45" d="M265.02,170.35c0,0,102.52-163.17,234-32.87C499.01,137.48,345.63,117.92,265.02,170.35z"
		/>
	<path id="XMLID_922_" fill="#FFFFFF" d="M268.95,164.61c-0.63,0.87-1.18,1.66-1.66,2.35c0.08,0.43,0.18,1.02,0.31,1.77
		c81.25-50.39,231.42-31.25,231.42-31.25c-0.61-0.61-1.22-1.19-1.83-1.78c-2.14-1.04-4.31-2.12-6.6-3.07
		C379.66,86.85,282.96,153.25,268.95,164.61z"/>
	<path id="XMLID_1329_" fill="#6DBE45" d="M260.72,176.22c0,0-162.58,14.67-205.43,79.24C55.28,255.46,94.02,87.4,260.72,176.22z"/>
	<path id="XMLID_1328_" fill="#6DBE45" d="M257.19,170.35c0,0-44.61-190.17-246.52-84.52C10.68,85.83,170.33,84.66,257.19,170.35z"
		/>
	<path id="XMLID_1326_" fill="#6DBE45" d="M260.72,176.22c0,0,201.91-51.65,190.17,160.82C450.89,337.05,387.1,201.66,260.72,176.22
		z"/>
	<path id="XMLID_1360_" fill="#FFFFFF" d="M299.03,179.33c-25.7,0.66-38.31-3.1-38.31-3.1c126.39,25.43,190.17,160.82,190.17,160.82
		c0.53-9.59-6.69-23.45-7-31.99C428.7,277.55,392.87,195.27,299.03,179.33z"/>
	<path id="XMLID_1299_" fill="#6DBE45" d="M257.19,170.35c0,0-42.26-137.74,107.22-157.3C364.41,13.05,280.67,68.62,257.19,170.35z"
		/>
	<path id="XMLID_913_" fill="#F68E49" d="M257.19,170.35c0,0-130.19,173.82-130.19,392.15h78.54
		C205.54,562.51,167.29,464.89,257.19,170.35z"/>
	<path id="XMLID_1359_" fill="#FFFFFF" d="M257.19,170.35c0,0-3.72,4.97-9.88,14.25c-94.84,239.66-66.95,377.9-66.95,377.9h25.18
		C205.54,562.51,167.29,464.89,257.19,170.35z"/>
	<path id="XMLID_78_" fill="#4A4742" d="M55.28,263.66c-1.09,0-2.19-0.22-3.24-0.67c-3.64-1.57-5.64-5.51-4.75-9.37
		c0.7-3.03,17.77-74.43,77.19-101.49c38.81-17.67,85.94-12,140.09,16.85c3.2,1.7,4.9,5.31,4.18,8.86c-0.72,3.55-3.69,6.21-7.3,6.54
		c-1.59,0.14-159.16,15.07-199.34,75.6C60.56,262.34,57.96,263.66,55.28,263.66z M172.16,158.51c-14.72,0-28.37,2.85-40.88,8.54
		c-27.2,12.39-44.49,36.23-54.82,56.31c44.51-31.26,115.88-45.79,155.29-51.75C210.3,162.89,190.41,158.51,172.16,158.51z"/>
	<path id="XMLID_75_" fill="#4A4742" d="M257.2,178.55c-2.1,0-4.19-0.81-5.76-2.36C167.95,93.84,12.29,94.06,10.74,94.03
		c-3.76,0.08-7.1-2.54-8.02-6.21c-0.92-3.67,0.8-7.5,4.15-9.25c67.31-35.22,125.16-42.22,171.96-20.81
		c66.87,30.6,85.58,107.46,86.35,110.72c0.83,3.56-0.78,7.24-3.97,9.02C259.95,178.21,258.57,178.55,257.2,178.55z M43.91,79.31
		c15.87,1.4,36.36,3.95,59.09,8.61c39.63,8.13,92.42,24.27,135.73,56.04c-10.91-23.36-31.49-55.21-66.84-71.34
		C136.71,56.57,93.76,58.84,43.91,79.31z"/>
	<path id="XMLID_72_" fill="#4A4742" d="M265.02,178.55c-2.1,0-4.18-0.8-5.75-2.36c-2.74-2.7-3.24-6.95-1.19-10.21
		c2-3.18,49.73-77.9,123.69-86.4c41.91-4.81,83.3,12.7,123.03,52.07c2.5,2.47,3.14,6.26,1.6,9.42c-1.54,3.16-4.92,4.98-8.41,4.54
		c-1.51-0.19-151.37-18.56-228.49,31.61C268.12,178.12,266.57,178.55,265.02,178.55z M395.18,95.22c-3.85,0-7.7,0.22-11.54,0.66
		c-38.25,4.4-69.43,29.78-89.02,50.58c61.78-23.56,140.79-22.11,180.49-19.41C448.7,105.89,421.92,95.22,395.18,95.22z"/>
	<path id="XMLID_68_" fill="#4A4742" d="M450.88,345.24c-3.13,0-6.04-1.79-7.41-4.71c-0.15-0.33-16.03-33.58-46.79-69.37
		c-28.08-32.66-74.74-74.26-137.58-86.9c-3.75-0.75-6.48-4-6.58-7.83c-0.1-3.82,2.46-7.21,6.16-8.16c0.93-0.24,22.95-5.78,52.3-5.78
		c0.35,0,0.71,0,1.07,0c40.08,0.18,74.23,10.94,98.77,31.1c35.67,29.31,51.91,77.72,48.25,143.9c-0.21,3.75-2.93,6.88-6.62,7.59
		C451.93,345.2,451.4,345.24,450.88,345.24z M299.48,179.23c39.76,15.73,77.23,43.45,109.94,81.6
		c14.29,16.67,25.42,32.63,33.42,45.33c-2.32-45.1-16.54-78.63-42.43-99.9C369.93,181.23,328.81,177.71,299.48,179.23z"/>
	<path id="XMLID_65_" fill="#4A4742" d="M257.19,178.55c-3.59,0-6.78-2.34-7.84-5.79c-0.79-2.57-18.97-63.57,12.51-112.53
		c19.58-30.45,53.72-49.06,101.48-55.31c3.79-0.5,7.41,1.68,8.74,5.26c1.34,3.57,0.03,7.6-3.15,9.7
		c-0.8,0.54-81.33,55.13-103.76,152.31c-0.83,3.61-3.99,6.22-7.7,6.35C257.39,178.55,257.29,178.55,257.19,178.55z M332.78,28.27
		c-25.76,8.22-44.88,21.86-57.06,40.74c-13.54,21-16.35,45.28-15.7,64.53C279.16,84.55,310.33,49.14,332.78,28.27z"/>
	<path id="XMLID_62_" fill="#4A4742" d="M205.54,570.71H127c-4.53,0-8.2-3.67-8.2-8.2c0-114.27,35.81-216.09,65.85-281.38
		c32.54-70.73,64.63-113.89,65.98-115.69c2.39-3.19,6.72-4.2,10.27-2.4c3.55,1.8,5.3,5.9,4.13,9.71
		c-25.24,82.71-55.99,202.27-59.12,302.2c-1.87,59.75,7.19,84.36,7.28,84.6c0.96,2.52,0.62,5.37-0.91,7.59
		C210.75,569.36,208.24,570.71,205.54,570.71z M135.27,554.31h59.5c-6.79-30.54-17.73-126.54,38.74-331.83
		c-10.32,17.77-22.26,40.03-34.15,65.9C170.82,350.53,136.92,446.5,135.27,554.31z"/>
</g>
</svg>
