<?xml version="1.0" encoding="utf-8"?>
<!-- Generator: Adobe Illustrator 27.3.1, SVG Export Plug-In . SVG Version: 6.00 Build 0)  -->
<svg version="1.1" id="filtro" xmlns="http://www.w3.org/2000/svg" xmlns:xlink="http://www.w3.org/1999/xlink" x="0px" y="0px"
	 viewBox="0 0 276.25 440" enable-background="new 0 0 276.25 440" xml:space="preserve">
<g id="XMLID_1_">
	<g id="XMLID_1062_">
		<rect id="XMLID_969_" x="42.6" y="304.54" fill="#F9A333" width="172.75" height="128.07"/>
	</g>
	<rect id="XMLID_6_" x="42.6" y="398.95" fill="#FFFFFF" width="192.77" height="33.66"/>
	<polygon id="XMLID_968_" fill="#FFFFFF" points="235.37,304.54 42.6,304.54 9.98,10.2 267.99,10.2 	"/>
	<polygon id="XMLID_1061_" fill="#F9A333" points="212.53,304.54 39.29,304.54 9.98,10.2 241.85,10.2 	"/>
	<polygon id="XMLID_5_" fill="#FFFFFF" points="265.46,33.06 267.99,10.2 9.98,10.2 12.51,33.06 	"/>
	<line id="XMLID_4_" fill="#F68E49" x1="42.89" y1="402.64" x2="235.08" y2="402.64"/>
	<path id="XMLID_3_" fill="#FFFFFF" d="M178.91,402.56c-1.88-20.4-19.03-36.37-39.92-36.37c-20.89,0-38.04,15.97-39.92,36.37H178.91
		z"/>
	<line id="XMLID_2_" fill="#F68E49" x1="14.66" y1="36.96" x2="266.38" y2="36.96"/>
	<path id="XMLID_104_" fill="#4A4742" d="M242.76,440H35.21V297.15h207.55V440z M49.99,425.22h177.99V311.93H49.99V425.22z"/>
	<path id="XMLID_101_" fill="#4A4742" d="M241.99,311.93h-206L1.72,2.81h274.53L241.99,311.93z M49.22,297.15h179.54l30.98-279.55
		H18.23L49.22,297.15z"/>
	<rect id="XMLID_99_" x="42.89" y="395.25" fill="#4A4742" width="192.19" height="14.78"/>
	<path id="XMLID_96_" fill="#4A4742" d="M187.01,409.95H90.96l0.74-8.07c2.27-24.56,22.59-43.08,47.28-43.08
		c24.69,0,45.01,18.52,47.28,43.08L187.01,409.95z M108.2,395.17h61.57c-4.54-12.73-16.62-21.59-30.79-21.59
		C124.82,373.58,112.73,382.44,108.2,395.17z"/>
	<rect id="XMLID_95_" x="14.66" y="29.57" fill="#4A4742" width="251.72" height="14.78"/>
	<circle id="XMLID_1126_" fill="#FFFFFF" cx="139.22" cy="167.69" r="36.45"/>
	<g id="XMLID_1237_">
		<path id="XMLID_94_" fill="#FFFEFD" d="M139.05,122.28c-1.7,0-3.08-1.38-3.08-3.08v-15.13c0-1.7,1.38-3.08,3.08-3.08
			c1.7,0,3.08,1.38,3.08,3.08v15.13C142.12,120.9,140.75,122.28,139.05,122.28z"/>
		<path id="XMLID_93_" fill="#FFFEFD" d="M139.05,234.25c-1.7,0-3.08-1.38-3.08-3.08v-15.13c0-1.7,1.38-3.08,3.08-3.08
			c1.7,0,3.08,1.38,3.08,3.08v15.13C142.12,232.87,140.75,234.25,139.05,234.25z"/>
	</g>
	<g id="XMLID_1239_">
		<path id="XMLID_92_" fill="#FFFEFD" d="M114.84,128.76c-1.06,0-2.1-0.55-2.67-1.54l-7.57-13.1c-0.85-1.47-0.35-3.36,1.13-4.21
			c1.47-0.85,3.36-0.35,4.21,1.13l7.57,13.1c0.85,1.47,0.35,3.36-1.13,4.21C115.89,128.63,115.36,128.76,114.84,128.76z"/>
		<path id="XMLID_91_" fill="#FFFEFD" d="M170.83,225.74c-1.06,0-2.1-0.55-2.67-1.54l-7.57-13.1c-0.85-1.47-0.35-3.36,1.13-4.21
			c1.47-0.85,3.36-0.35,4.21,1.13l7.57,13.1c0.85,1.47,0.35,3.36-1.13,4.21C171.88,225.6,171.35,225.74,170.83,225.74z"/>
	</g>
	<g id="XMLID_1242_">
		<path id="XMLID_90_" fill="#FFFEFD" d="M97.11,146.49c-0.52,0-1.05-0.13-1.54-0.41l-13.1-7.57c-1.47-0.85-1.98-2.73-1.13-4.21
			c0.85-1.47,2.73-1.98,4.21-1.13l13.1,7.57c1.47,0.85,1.98,2.73,1.13,4.21C99.21,145.93,98.17,146.49,97.11,146.49z"/>
		<path id="XMLID_89_" fill="#FFFEFD" d="M194.08,202.47c-0.52,0-1.05-0.13-1.54-0.41l-13.1-7.57c-1.47-0.85-1.98-2.73-1.13-4.21
			c0.85-1.47,2.73-1.98,4.21-1.13l13.1,7.57c1.47,0.85,1.98,2.73,1.13,4.21C196.18,201.92,195.15,202.47,194.08,202.47z"/>
	</g>
	<g id="XMLID_1245_">
		<path id="XMLID_87_" fill="#FFFEFD" d="M90.62,170.7H75.49c-1.7,0-3.08-1.38-3.08-3.08c0-1.7,1.38-3.08,3.08-3.08h15.13
			c1.7,0,3.08,1.38,3.08,3.08C93.7,169.32,92.33,170.7,90.62,170.7z"/>
		<path id="XMLID_86_" fill="#FFFEFD" d="M202.6,170.7h-15.13c-1.7,0-3.08-1.38-3.08-3.08c0-1.7,1.38-3.08,3.08-3.08h15.13
			c1.7,0,3.08,1.38,3.08,3.08C205.68,169.32,204.3,170.7,202.6,170.7z"/>
	</g>
	<g id="XMLID_1248_">
		<path id="XMLID_84_" fill="#FFFEFD" d="M84.01,202.47c-1.06,0-2.1-0.55-2.67-1.54c-0.85-1.47-0.35-3.36,1.13-4.21l13.1-7.57
			c1.47-0.85,3.36-0.35,4.21,1.13c0.85,1.47,0.35,3.36-1.13,4.21l-13.1,7.57C85.06,202.34,84.53,202.47,84.01,202.47z"/>
		<path id="XMLID_83_" fill="#FFFEFD" d="M180.98,146.49c-1.06,0-2.1-0.55-2.67-1.54c-0.85-1.47-0.35-3.36,1.13-4.21l13.1-7.57
			c1.47-0.85,3.36-0.35,4.21,1.13c0.85,1.47,0.35,3.36-1.13,4.21l-13.1,7.57C182.03,146.35,181.5,146.49,180.98,146.49z"/>
	</g>
	<g id="XMLID_1251_">
		<path id="XMLID_82_" fill="#FFFEFD" d="M107.27,225.74c-0.52,0-1.05-0.13-1.54-0.41c-1.47-0.85-1.98-2.73-1.13-4.21l7.57-13.1
			c0.85-1.47,2.73-1.98,4.21-1.13c1.47,0.85,1.98,2.73,1.13,4.21l-7.57,13.1C109.37,225.18,108.33,225.74,107.27,225.74z"/>
		<path id="XMLID_81_" fill="#FFFEFD" d="M163.25,128.76c-0.52,0-1.05-0.13-1.54-0.41c-1.47-0.85-1.98-2.73-1.13-4.21l7.57-13.1
			c0.85-1.47,2.73-1.98,4.21-1.13c1.47,0.85,1.98,2.73,1.13,4.21l-7.57,13.1C165.35,128.21,164.32,128.76,163.25,128.76z"/>
	</g>
</g>
</svg>
